<svg id="Layer_1" data-name="Layer 1" xmlns="http://www.w3.org/2000/svg" viewBox="0 0 140.87 82.04"><defs><style>.cls-1{fill:#08c;}</style></defs><path class="cls-1" d="M177.49,23.12a6,6,0,0,1,3.43,1,2.78,2.78,0,0,1,1.43,2.32V37.86H178V26.41c0-.25-.18-.37-.54-.37h-2.16c-.36,0-.54.12-.54.37v43.1c0,.24.18.37.54.37h2.16c.36,0,.54-.13.54-.37V40.72h4.32V69.51a2.78,2.78,0,0,1-1.43,2.32,6,6,0,0,1-3.43,1h-2.16a6,6,0,0,1-3.44-1,2.78,2.78,0,0,1-1.43-2.32V26.41a2.78,2.78,0,0,1,1.43-2.32,6,6,0,0,1,3.44-1Z" transform="translate(-129.97 -22.96)"/><path class="cls-1" d="M193.3,23.12a5.94,5.94,0,0,1,3.43,1,2.78,2.78,0,0,1,1.43,2.32V72.8h-4.32V40.65H190.6V72.8h-4.33V26.41a2.77,2.77,0,0,1,1.44-2.32,5.92,5.92,0,0,1,3.43-1Zm-2.7,3.29V37.73h3.24V26.41c0-.25-.18-.37-.54-.37h-2.16C190.78,26,190.6,26.16,190.6,26.41Z" transform="translate(-129.97 -22.96)"/><path class="cls-1" d="M205.59,23.12h3.24a5.94,5.94,0,0,1,3.43,1,2.78,2.78,0,0,1,1.43,2.32v11a2.59,2.59,0,0,1-.81,1.82,2.59,2.59,0,0,1,.81,1.83V72.8h-4.32V41c0-.24-.18-.37-.54-.37h-3.24V72.8h-4.33V23.12Zm0,14.61h3.24q.54,0,.54-.36v-11c0-.25-.18-.37-.54-.37h-3.24Z" transform="translate(-129.97 -22.96)"/><path class="cls-1" d="M224.23,23.12a5.94,5.94,0,0,1,3.43,1,2.76,2.76,0,0,1,1.43,2.32v43.1a2.76,2.76,0,0,1-1.43,2.32,5.94,5.94,0,0,1-3.43,1h-7V23.12Zm-2.7,46.76h2.7c.36,0,.54-.13.54-.37V26.41c0-.25-.18-.37-.54-.37h-2.7Z" transform="translate(-129.97 -22.96)"/><path class="cls-1" d="M238.58,55.32v46.76h2.78c.37,0,.55-.12.55-.37V72.85h4.45v28.86a2.77,2.77,0,0,1-1.47,2.32,6.25,6.25,0,0,1-3.53,1h-7.23V55.32Z" transform="translate(-129.97 -22.96)"/><path class="cls-1" d="M250,55.32h4.45V105H250Z" transform="translate(-129.97 -22.96)"/><path class="cls-1" d="M265.83,55.32a6.27,6.27,0,0,1,3.53,1,2.77,2.77,0,0,1,1.47,2.32v11a2.57,2.57,0,0,1-.83,1.82,2.58,2.58,0,0,1,.83,1.83v28.49a2.77,2.77,0,0,1-1.47,2.32,6.27,6.27,0,0,1-3.53,1H258V55.32Zm-3.34,14.61h3.34c.37,0,.55-.12.55-.36v-11c0-.25-.18-.37-.55-.37h-3.34Zm0,32.15h3.34c.37,0,.55-.12.55-.37V73.22c0-.24-.18-.37-.55-.37h-3.34Z" transform="translate(-129.97 -22.96)"/><path class="cls-1" d="M234,23V46.58a4.25,4.25,0,0,0,4.26,4.26H270.7V27.22A4.26,4.26,0,0,0,266.44,23Zm31.41,23.68H239.28a1,1,0,0,1-1.05-1V28.22a1.05,1.05,0,0,1,1.05-1.06h26.16a1.06,1.06,0,0,1,1.06,1.06V45.59A1.06,1.06,0,0,1,265.44,46.64Z" transform="translate(-129.97 -22.96)"/><path class="cls-1" d="M170.61,77.59v23.09a4,4,0,0,0,4,4h54.42V81.61a4,4,0,0,0-4-4Zm53,22.92H176.05a1.25,1.25,0,0,1-1.24-1.24V83a1.24,1.24,0,0,1,1.24-1.23h47.57A1.24,1.24,0,0,1,224.86,83V99.27A1.25,1.25,0,0,1,223.62,100.51Z" transform="translate(-129.97 -22.96)"/><path class="cls-1" d="M130,44.88V68.5a4.26,4.26,0,0,0,4.26,4.27h32.41V49.14a4.26,4.26,0,0,0-4.26-4.26Zm31.41,23.68H135.22a1,1,0,0,1-1.05-1V50.14a1.05,1.05,0,0,1,1.05-1.06h26.16a1.06,1.06,0,0,1,1.06,1.06V67.51A1.06,1.06,0,0,1,161.38,68.56Z" transform="translate(-129.97 -22.96)"/></svg>