<svg id="Layer_1" data-name="Layer 1" xmlns="http://www.w3.org/2000/svg" viewBox="0 0 118.52 86.82"><defs><style>.cls-1{fill:#fff;}.cls-2{fill:none;stroke:#fff;stroke-linecap:round;stroke-linejoin:round;stroke-width:8px;}.cls-3{fill:#08c;}</style></defs><rect class="cls-1" x="36.85" y="6.29" width="77" height="73"/><rect class="cls-1" x="7.85" y="48.29" width="28" height="10"/><path class="cls-2" d="M182.77,24.71a3.89,3.89,0,0,1,3.86,3.86V35H183.2V28.57a.38.38,0,0,0-.43-.43h-1.72a.38.38,0,0,0-.43.43v50.6a.38.38,0,0,0,.43.43h1.72a.38.38,0,0,0,.43-.43V41.86h3.43V79.17A3.89,3.89,0,0,1,182.77,83h-1.72a3.89,3.89,0,0,1-3.86-3.86V28.57a3.89,3.89,0,0,1,3.86-3.86Z" transform="translate(-141.15 -20.71)"/><path class="cls-2" d="M195,24.71a3.89,3.89,0,0,1,3.86,3.86V83h-3.43V45.29h-2.58V83h-3.43V28.57a3.89,3.89,0,0,1,3.86-3.86Zm-2.15,3.86V41.86h2.58V28.57a.38.38,0,0,0-.43-.43h-1.72A.38.38,0,0,0,192.84,28.57Z" transform="translate(-141.15 -20.71)"/><path class="cls-2" d="M205.06,24.71h2.58a3.89,3.89,0,0,1,3.86,3.86V41.43a3.85,3.85,0,0,1-.65,2.15,3.84,3.84,0,0,1,.65,2.14V83h-3.43V45.72a.39.39,0,0,0-.43-.43h-2.58V83h-3.43V24.71Zm0,17.15h2.58a.38.38,0,0,0,.43-.43V28.57a.38.38,0,0,0-.43-.43h-2.58Z" transform="translate(-141.15 -20.71)"/><path class="cls-2" d="M219.86,24.71a3.89,3.89,0,0,1,3.86,3.86v50.6A3.89,3.89,0,0,1,219.86,83h-5.58V24.71ZM217.71,79.6h2.15a.38.38,0,0,0,.43-.43V28.57a.38.38,0,0,0-.43-.43h-2.15Z" transform="translate(-141.15 -20.71)"/><path class="cls-2" d="M230.8,45.21V100.1h2.14a.38.38,0,0,0,.43-.43V65.8h3.43V99.67a3.86,3.86,0,0,1-3.86,3.86h-5.57V45.21Z" transform="translate(-141.15 -20.71)"/><path class="cls-2" d="M239.59,45.21H243v58.32h-3.43Z" transform="translate(-141.15 -20.71)"/><path class="cls-2" d="M251.81,45.21a3.89,3.89,0,0,1,3.86,3.86V61.94a3.83,3.83,0,0,1-.64,2.14,3.84,3.84,0,0,1,.64,2.15V99.67a3.88,3.88,0,0,1-3.86,3.86h-6V45.21Zm-2.57,17.16h2.57a.38.38,0,0,0,.43-.43V49.07a.38.38,0,0,0-.43-.43h-2.57Zm0,37.73h2.57a.38.38,0,0,0,.43-.43V66.23a.38.38,0,0,0-.43-.43h-2.57Z" transform="translate(-141.15 -20.71)"/><path class="cls-2" d="M227.23,27.51V42H253a2.64,2.64,0,0,0,2.63-2.64V24.87H229.87A2.64,2.64,0,0,0,227.23,27.51Zm22.43,11.21H230.53V30.8a2.63,2.63,0,0,1,2.63-2.63H252.3v7.91A2.64,2.64,0,0,1,249.66,38.72Z" transform="translate(-141.15 -20.71)"/><path class="cls-2" d="M177.09,86.55v14.18a2.64,2.64,0,0,0,2.64,2.64H223.6V89.19A2.64,2.64,0,0,0,221,86.55ZM220,100.07H183.36a2.64,2.64,0,0,1-2.64-2.63V89.85h36.61A2.64,2.64,0,0,1,220,92.49Z" transform="translate(-141.15 -20.71)"/><path class="cls-2" d="M145.15,68V82.53h25.73a2.64,2.64,0,0,0,2.64-2.64V65.38H147.79A2.64,2.64,0,0,0,145.15,68Zm22.43,11.22H148.45V71.31a2.64,2.64,0,0,1,2.64-2.64h19.13v7.92A2.64,2.64,0,0,1,167.58,79.23Z" transform="translate(-141.15 -20.71)"/><path class="cls-3" d="M182.86,24.82a3.88,3.88,0,0,1,3.86,3.86v6.44h-3.43V28.68a.38.38,0,0,0-.43-.43h-1.71a.38.38,0,0,0-.43.43v50.6a.38.38,0,0,0,.43.43h1.71a.38.38,0,0,0,.43-.43V42h3.43v37.3a3.86,3.86,0,0,1-3.86,3.86h-1.71a3.88,3.88,0,0,1-3.86-3.86V28.68a3.89,3.89,0,0,1,3.86-3.86Z" transform="translate(-141.15 -20.71)"/><path class="cls-3" d="M195.08,24.82a3.88,3.88,0,0,1,3.86,3.86V83.14h-3.43V45.41h-2.57V83.14h-3.43V28.68a3.89,3.89,0,0,1,3.86-3.86Zm-2.14,3.86V42h2.57V28.68a.38.38,0,0,0-.43-.43h-1.71A.38.38,0,0,0,192.94,28.68Z" transform="translate(-141.15 -20.71)"/><path class="cls-3" d="M205.16,24.82h2.57a3.88,3.88,0,0,1,3.86,3.86V41.55a3.83,3.83,0,0,1-.64,2.14,3.84,3.84,0,0,1,.64,2.15v37.3h-3.43V45.84a.38.38,0,0,0-.43-.43h-2.57V83.14h-3.43V24.82Zm0,17.16h2.57a.38.38,0,0,0,.43-.43V28.68a.38.38,0,0,0-.43-.43h-2.57Z" transform="translate(-141.15 -20.71)"/><path class="cls-3" d="M220,24.82a3.88,3.88,0,0,1,3.86,3.86v50.6A3.86,3.86,0,0,1,220,83.14h-5.57V24.82Zm-2.14,54.89H220a.38.38,0,0,0,.43-.43V28.68a.38.38,0,0,0-.43-.43h-2.14Z" transform="translate(-141.15 -20.71)"/><path class="cls-3" d="M230.9,45.33v54.88H233a.38.38,0,0,0,.43-.42V65.91h3.43V99.79a3.89,3.89,0,0,1-3.86,3.86h-5.58V45.33Z" transform="translate(-141.15 -20.71)"/><path class="cls-3" d="M239.69,45.33h3.43v58.32h-3.43Z" transform="translate(-141.15 -20.71)"/><path class="cls-3" d="M251.91,45.33a3.88,3.88,0,0,1,3.86,3.86V62.05a3.82,3.82,0,0,1-.65,2.14,3.88,3.88,0,0,1,.65,2.15V99.79a3.89,3.89,0,0,1-3.86,3.86h-6V45.33Zm-2.58,17.15h2.58a.38.38,0,0,0,.43-.43V49.19a.38.38,0,0,0-.43-.43h-2.58Zm0,37.73h2.58a.38.38,0,0,0,.43-.42V66.34a.38.38,0,0,0-.43-.43h-2.58Z" transform="translate(-141.15 -20.71)"/><path class="cls-3" d="M227.32,27.62V42.13h25.73a2.64,2.64,0,0,0,2.64-2.64V25H230A2.64,2.64,0,0,0,227.32,27.62Zm22.43,11.21H230.62V30.92a2.64,2.64,0,0,1,2.64-2.64h19.13v7.91A2.64,2.64,0,0,1,249.75,38.83Z" transform="translate(-141.15 -20.71)"/><path class="cls-3" d="M177.18,86.66v14.19a2.65,2.65,0,0,0,2.64,2.64h43.87V89.3a2.64,2.64,0,0,0-2.63-2.64Zm42.89,13.53H183.45a2.64,2.64,0,0,1-2.64-2.64V90h36.62a2.64,2.64,0,0,1,2.64,2.64Z" transform="translate(-141.15 -20.71)"/><path class="cls-3" d="M145.24,68.13V82.64H171A2.64,2.64,0,0,0,173.61,80V65.49H147.88A2.64,2.64,0,0,0,145.24,68.13Zm22.43,11.21H148.54V71.43a2.64,2.64,0,0,1,2.64-2.64h19.13V76.7A2.64,2.64,0,0,1,167.67,79.34Z" transform="translate(-141.15 -20.71)"/></svg>